<svg width="28" height="23" viewBox="0 0 28 23" fill="none" xmlns="http://www.w3.org/2000/svg">
<rect x="1" y="1" width="26" height="21" rx="7" stroke="black" stroke-width="2"/>
<path d="M17.8421 12.9776V12.9788L17.8409 12.9812C18.2386 12.451 18.9901 12.3434 19.5204 12.7409C20.0506 13.1385 20.1582 13.8901 19.7606 14.4204L18.8008 13.7008C19.7416 14.4064 19.7606 14.4209 19.7606 14.4215L19.7583 14.4239C19.7573 14.4252 19.756 14.427 19.7548 14.4286C19.7524 14.4317 19.7499 14.436 19.7466 14.4403C19.7399 14.449 19.7311 14.4601 19.7208 14.4731C19.7001 14.4992 19.6715 14.5332 19.6364 14.5751C19.566 14.6589 19.4665 14.7734 19.3387 14.9067C19.0842 15.1723 18.712 15.5216 18.2312 15.8713C17.2736 16.5677 15.831 17.3011 14.0003 17.3011C12.1695 17.3011 10.727 16.5677 9.76938 15.8713C9.28854 15.5216 8.91634 15.1723 8.66184 14.9067C8.53409 14.7734 8.43453 14.6589 8.36415 14.5751C8.32905 14.5332 8.30044 14.4992 8.27977 14.4731C8.26946 14.4601 8.26066 14.449 8.25398 14.4403C8.25066 14.436 8.24819 14.4317 8.24578 14.4286C8.24457 14.427 8.24325 14.4252 8.24226 14.4239L8.23992 14.4215C8.24001 14.4209 8.25896 14.4064 9.19979 13.7008L8.23992 14.4204C7.8424 13.8901 7.94999 13.1385 8.48018 12.7409C9.01029 12.3435 9.76077 12.4513 10.1585 12.9812L10.1597 12.98L10.1585 12.9776H10.1573C10.1583 12.9789 10.1602 12.9801 10.162 12.9823C10.1691 12.9914 10.182 13.0091 10.2018 13.0327C10.2416 13.08 10.3064 13.1534 10.394 13.2449C10.5708 13.4293 10.8366 13.6804 11.1805 13.9305C11.873 14.4341 12.8308 14.9009 14.0003 14.9009C15.1698 14.9009 16.1276 14.4341 16.8201 13.9305C17.164 13.6804 17.4298 13.4293 17.6065 13.2449C17.6942 13.1534 17.759 13.08 17.7987 13.0327C17.8186 13.0091 17.8314 12.9914 17.8386 12.9823L17.8421 12.9776Z" fill="black"/>
<path d="M10.4111 6.5C11.0739 6.5 11.6112 7.03731 11.6112 7.70012C11.6112 8.36293 11.0739 8.90025 10.4111 8.90025H10.3993C9.73653 8.90025 9.19922 8.36293 9.19922 7.70012C9.19922 7.03731 9.73653 6.5 10.3993 6.5H10.4111Z" fill="black"/>
<path d="M17.6103 6.5C18.2731 6.5 18.8104 7.03731 18.8104 7.70012C18.8104 8.36293 18.2731 8.90025 17.6103 8.90025H17.5986C16.9358 8.90025 16.3984 8.36293 16.3984 7.70012C16.3984 7.03731 16.9358 6.5 17.5986 6.5H17.6103Z" fill="black"/>
</svg>
